{"title":"Game of Thrones S04E09 1080p HDTV x264 BATV Dual Audio REPACK LO","uid":10392047,"size":4020745068,"categoryP":"video","categoryS":"hd___tv_shows","magnet":"?xt=urn:btih:1616e152a6f9d4cd8a0e2b0c8ca6f2bb4590daf5&amp;dn=Game+of+Thrones+S04E09+1080p+HDTV+x264+BATV+Dual+Audio+REPACK+LO&amp;tr=udp%3A%2F%2Ftracker.openbittorrent.com%3A80&amp;tr=udp%3A%2F%2Fopen.demonii.com%3A1337&amp;tr=udp%3A%2F%2Ftracker.coppersurfer.tk%3A6969&amp;tr=udp%3A%2F%2Fexodus.desync.com%3A6969","seeders":3,"leechers":0,"uploader":"Alemao99","files":5,"time":1403204783,"description":"Survivors of the Night's Watch (Night's Watch) return to the south. In Puerto Real (King's Landing), Tyrion asks his reward, Pinky (Little Finger) offers an outlet for Sansa and Cersei receives guests at a dinner for the royal family. Arya finds, by chance, the Brotherhood Without Banners (Brotherhood Without Banners). Dany sailed up the Bay of Slaves (Slaver's Bay). \n\nOriginal Name: Game of Thrones - S04E09\nTitle in Brazil: Game of Thrones \nGenre: Adventure | Drama | Medieval \nVideo Length: 53 Min \nRelease Year: 2014       &lt;a href=&quot;\nhttp://www.imdb.com/title/tt0944947/&quot; rel=&quot;nofollow&quot; target=&quot;_NEW&quot;&gt;\nhttp://www.imdb.com/title/tt0944947/&lt;/a&gt; \n\nSize: 3.58 GB\nFormat: MKV \nResolution: 1920 x 1072\nQuality: HDTV \nVideo codec: H.264 / AVC \nAudio Codec: AC3 \nVideo Language: Portuguese / English \nSubtitle Language: Portuguese (embedded subtitle)\n\n\nFormat                                   : Matroska\nFormat version                           : Version 4 / Version 2\nFile size                                : 3.74 GiB\nDuration                                 : 50mn 33s\nOverall bit rate                         : 10.6 Mbps\nEncoded date                             : UTC 2014-06-09 22:06:49\nWriting application                      : mkvmerge v6.8.0 ('Theme for Great Cities') 32bit built on Mar  3 2014 14:27:09\nWriting library                          : libebml v1.3.0 + libmatroska v1.4.1\n\nVideo\nID                                       : 1\nFormat                                   : AVC\nFormat/Info                              : Advanced Video Codec\nFormat profile                           : &lt;a class=&quot;__cf_email__&quot; href=&quot;/cdn-cgi/l/email-protection&quot; data-cfemail=&quot;3870515f5078740c1609&quot;&gt;[email&amp;#160;protected]&lt;/a&gt;&lt;script cf-hash='f9e31' type=&quot;text/javascript&quot;&gt;\n/* &lt;![CDATA[ */!function(){try{var t=&quot;currentScript&quot;in document?document.currentScript:function(){for(var t=document.getElementsByTagName(&quot;script&quot;),e=t.length;e--;)if(t[e].getAttribute(&quot;cf-hash&quot;))return t[e]}();if(t&amp;&amp;t.previousSibling){var e,r,n,i,c=t.previousSibling,a=c.getAttribute(&quot;data-cfemail&quot;);if(a){for(e=&quot;&quot;,r=parseInt(a.substr(0,2),16),n=2;a.length-n;n+=2)i=parseInt(a.substr(n,2),16)^r,e+=String.fromCharCode(i);e=document.createTextNode(e),c.parentNode.replaceChild(e,c)}}}catch(u){}}();/* ]]&gt; */&lt;/script&gt;\nFormat settings, CABAC                   : Yes\nFormat settings, ReFrames                : 4 frames\nCodec ID                                 : V_MPEG4/ISO/AVC\nDuration                                 : 50mn 33s\nBit rate                                 : 9 817 Kbps\nWidth                                    : 1 920 pixels\nHeight                                   : 1 072 pixels\nDisplay aspect ratio                     : 16:9\nFrame rate                               : 23.976 fps\nColor space                              : YUV\nChroma subsampling                       : 4:2:0\nBit depth                                : 8 bits\nScan type                                : Progressive\nBits/(Pixel*Frame)                       : 0.199\nStream size                              : 3.47 GiB (93%)\nWriting library                          : x264 core 142 r2431 ac76440\nEncoding settings                        : cabac=1 / ref=4 / deblock=1:0:0 / analyse=0x3:0x113 / me=umh / subme=8 / psy=1 / psy_rd=1.00:0.00 / mixed_ref=1 / me_range=16 / chroma_me=1 / trellis=1 / 8x8dct=1 / cqm=0 / deadzone=21,11 / fast_pskip=1 / chroma_qp_offset=-2 / threads=18 / lookahead_threads=3 / sliced_threads=0 / nr=0 / decimate=1 / interlaced=0 / bluray_compat=0 / constrained_intra=0 / bframes=3 / b_pyramid=2 / b_adapt=2 / b_bias=0 / direct=3 / weightb=1 / open_gop=0 / weightp=2 / keyint=250 / keyint_min=23 / scenecut=40 / intra_refresh=0 / rc_lookahead=50 / rc=crf / mbtree=1 / crf=17.0 / qcomp=0.60 / qpmin=0 / qpmax=69 / qpstep=4 / ip_ratio=1.40 / aq=1:1.00\nLanguage                                 : English\nDefault                                  : Yes\nForced                                   : No\nMatrix coefficients                      : BT.709-5, BT.1361, IEC 61966-2-4 709, SMPTE RP177\n\nAudio #1\nID                                       : 2\nFormat                                   : AC-3\nFormat/Info                              : Audio Coding 3\nMode extension                           : CM (complete main)\nFormat settings, Endianness              : Big\nCodec ID                                 : A_AC3\nDuration                                 : 50mn 33s\nBit rate mode                            : Constant\nBit rate                                 : 384 Kbps\nChannel(s)                               : 2 channels\nChannel positions                        : Front: L R\nSampling rate                            : 48.0 KHz\nBit depth                                : 16 bits\nCompression mode                         : Lossy\nStream size                              : 139 MiB (4%)\nLanguage                                 : English\nDefault                                  : No\nForced                                   : No\n\nAudio #2\nID                                       : 4\nFormat                                   : AC-3\nFormat/Info                              : Audio Coding 3\nMode extension                           : CM (complete main)\nFormat settings, Endianness              : Big\nCodec ID                                 : A_AC3\nDuration                                 : 50mn 33s\nBit rate mode                            : Constant\nBit rate                                 : 192 Kbps\nChannel(s)                               : 2 channels\nChannel positions                        : Front: L R\nSampling rate                            : 48.0 KHz\nBit depth                                : 16 bits\nCompression mode                         : Lossy\nDelay relative to video                  : 670ms\nStream size                              : 69.4 MiB (2%)\nTitle                                    : PTBR LODONAS\nLanguage                                 : Portuguese\nDefault                                  : Yes\nForced                                   : No\n\nText #1\nID                                       : 3\nFormat                                   : UTF-8\nCodec ID                                 : S_TEXT/UTF8\nCodec ID/Info                            : UTF-8 Plain Text\nLanguage                                 : English\nDefault                                  : No\nForced                                   : No\n\nText #2\nID                                       : 5\nFormat                                   : UTF-8\nCodec ID                                 : S_TEXT/UTF8\nCodec ID/Info                            : UTF-8 Plain Text\nTitle                                    : PTBR HBO\nLanguage                                 : Portuguese\nDefault                                  : No\nForced                                   : No\n\n\n\nSEED PLEASE\n\nENJOY...","torrent":{"xt":"urn:btih:1616e152a6f9d4cd8a0e2b0c8ca6f2bb4590daf5","amp;dn":"Game+of+Thrones+S04E09+1080p+HDTV+x264+BATV+Dual+Audio+REPACK+LO","amp;tr":["udp%3A%2F%2Ftracker.openbittorrent.com%3A80","udp%3A%2F%2Fopen.demonii.com%3A1337","udp%3A%2F%2Ftracker.coppersurfer.tk%3A6969","udp%3A%2F%2Fexodus.desync.com%3A6969"],"infoHash":"1616e152a6f9d4cd8a0e2b0c8ca6f2bb4590daf5","infoHashBuffer":{"type":"Buffer","data":[22,22,225,82,166,249,212,205,138,14,43,12,140,166,242,187,69,144,218,245]},"announce":[],"urlList":[]}}